3300 0 3 0           
15 SolidWorks 2024 14 ACIS 33.0.1 NT 24 Sat May 10 16:53:00 2025 
1 9.9999999999999995e-07 1e-10 
T @77 55RJFQ6GE9NH2M98FGHYPTDH35QBF677WAKMFGP479G4M6N879TKKG667DJ4QA66F8QBFC5BBB8CP 
-0 body $3 -1 -1 $-1 0 $4 $-1 $-1 F #
-1 body $5 -1 -1 $-1 0 $6 $-1 $-1 F #
-2 body $7 -1 -1 $-1 0 $8 $-1 $-1 F #
-3 name_attrib-gen-attrib $-1 -1 $-1 $-1 $0 2 1 1 1 1 1 1 1 1 1 1 1 1 1 0 1 1 1 @11 maypha_body #
-4 lump $9 -1 -1 $-1 $-1 $10 $0 F #
-5 name_attrib-gen-attrib $-1 -1 $-1 $-1 $1 2 1 1 1 1 1 1 1 1 1 1 1 1 1 0 1 1 1 @9 vong phin #
-6 lump $11 -1 -1 $-1 $-1 $12 $1 F #
-7 name_attrib-gen-attrib $-1 -1 $-1 $-1 $2 2 1 1 1 1 1 1 1 1 1 1 1 1 1 0 1 1 1 @6 numvan #
-8 lump $13 -1 -1 $-1 $-1 $14 $2 F #
-9 rgb_color-st-attrib $-1 -1 $-1 $-1 $4 2 1 2 1 1 1 1 1 1 1 1 1 1 1 0 1 1 1 0.792156862745098 0.81960784313725488 0.93333333333333335 #
-10 shell $-1 -1 -1 $-1 $-1 $-1 $15 $-1 $4 F #
-11 rgb_color-st-attrib $-1 -1 $-1 $-1 $6 2 1 2 1 1 1 1 1 1 1 1 1 1 1 0 1 1 1 0.792156862745098 0.81960784313725488 0.93333333333333335 #
-12 shell $-1 -1 -1 $-1 $-1 $-1 $16 $-1 $6 F #
-13 rgb_color-st-attrib $-1 -1 $-1 $-1 $8 2 1 2 1 1 1 1 1 1 1 1 1 1 1 0 1 1 1 0.792156862745098 0.81960784313725488 0.93333333333333335 #
-14 shell $-1 -1 -1 $-1 $-1 $-1 $17 $-1 $8 F #
-15 face $18 -1 -1 $-1 $19 $20 $10 $-1 $21 reversed single F F #
-16 face $22 -1 -1 $-1 $23 $24 $12 $-1 $25 forward single F T -1.0927391974657053e-16 0.329113924050633 -1.0927391974657053e-16 3.1415926535897931 #
-17 face $26 -1 -1 $-1 $27 $28 $14 $-1 $29 forward single F T -6.8790193655122214e-17 0.11914819880740722 -1.3012132110969858 4.6689167232597085e-16 #
-18 integer_attrib-name_attrib-gen-attrib $-1 -1 $-1 $-1 $15 2 1 2 1 1 1 1 1 1 1 1 1 1 1 0 1 1 1 @13 Boss-Extrude2 0 #
-19 face $30 -1 -1 $-1 $31 $32 $10 $-1 $33 reversed single F F #
-20 loop $-1 -1 -1 $-1 $-1 $34 $15 F unknown #
-21 plane-surface $-1 -1 -1 $-1 0.27320762776847385 12.728095538443974 211.99458977258109 1 -6.4455094691966026e-18 0 6.4455094691966029e-15 1000 0 forward_v I I I I #
-22 integer_attrib-name_attrib-gen-attrib $-1 -1 $-1 $-1 $16 2 1 2 1 1 1 1 1 1 1 1 1 1 1 0 1 1 1 @13 Boss-Extrude1 0 #
-23 face $35 -1 -1 $-1 $36 $37 $12 $-1 $38 forward single F T -1.0927391974657053e-16 0.329113924050633 -3.1415926535897931 -1.0927391974657053e-16 #
-24 loop $-1 -1 -1 $-1 $-1 $39 $16 F unknown #
-25 cone-surface $-1 -1 -1 $-1 57.405691816061569 158.72809553844399 117.49458977258109 1.0927391974657053e-16 -1 0 -39.5 -4.3163198299895357e-15 -4.3163198299895357e-15 1 I I 0 1 39.5 forward I I I I #
-26 integer_attrib-name_attrib-gen-attrib $-1 -1 $-1 $-1 $17 2 1 2 1 1 1 1 1 1 1 1 1 1 1 0 1 1 1 @13 Boss-Extrude5 0 #
-27 face $40 -1 -1 $-1 $41 $42 $14 $-1 $43 forward single F F #
-28 loop $-1 -1 -1 $-1 $-1 $44 $17 F unknown #
-29 cone-surface $-1 -1 -1 $-1 9.9315610950949633 224.7364631921385 118.78874859585889 0.97125239649577921 -0.23805205796465093 -6.6072718952939444e-18 0 6.9885006806926342e-16 -25.178727249156651 1 I I 0 1 25.178727249156651 forward I I I I #
-30 integer_attrib-name_attrib-gen-attrib $-1 -1 $-1 $-1 $19 2 1 2 1 1 1 1 1 1 1 1 1 1 1 0 1 1 1 @13 Boss-Extrude2 0 #
-31 face $45 -1 -1 $-1 $46 $47 $10 $-1 $48 reversed single F F #
-32 loop $-1 -1 -1 $-1 $-1 $49 $19 F unknown #
-33 plane-surface $-1 -1 -1 $-1 0.27320762776847363 -25.271904461556026 211.99458977258109 0 1 0 0 0 1000 forward_v I I I I #
-34 coedge $-1 -1 -1 $-1 $50 $51 $52 $53 forward $20 $-1 #
-35 integer_attrib-name_attrib-gen-attrib $-1 -1 $-1 $-1 $23 2 1 2 1 1 1 1 1 1 1 1 1 1 1 0 1 1 1 @13 Boss-Extrude1 0 #
-36 face $54 -1 -1 $-1 $55 $56 $12 $-1 $57 forward single F F #
-37 loop $-1 -1 -1 $-1 $-1 $58 $23 F unknown #
-38 cone-surface $-1 -1 -1 $-1 57.405691816061569 158.72809553844399 117.49458977258109 1.0927391974657053e-16 -1 0 -39.5 -4.3163198299895357e-15 -4.3163198299895357e-15 1 I I 0 1 39.5 forward I I I I #
-39 coedge $-1 -1 -1 $-1 $59 $60 $61 $62 reversed $24 $-1 #
-40 integer_attrib-name_attrib-gen-attrib $-1 -1 $-1 $-1 $27 2 1 2 1 1 1 1 1 1 1 1 1 1 1 0 1 1 1 @13 Boss-Extrude5 0 #
-41 face $63 -1 -1 $-1 $64 $65 $14 $-1 $66 forward single F T -3.3515240679495769e-17 0.11914819880740726 -2.6957669332799379e-17 1.3012132110969863 #
-42 loop $-1 -1 -1 $-1 $-1 $67 $27 F unknown #
-43 plane-surface $-1 -1 -1 $-1 -17.497609967378018 112.82544525724836 115.30437927419135 -0.97125239649577921 0.23805205796465093 6.6072718952939444e-18 0 -2.7755575615628907e-14 1000 forward_v I I I I #
-44 coedge $-1 -1 -1 $-1 $68 $69 $70 $71 reversed $28 $-1 #
-45 integer_attrib-name_attrib-gen-attrib $-1 -1 $-1 $-1 $31 2 1 2 1 1 1 1 1 1 1 1 1 1 1 0 1 1 1 @13 Boss-Extrude2 0 #
-46 face $72 -1 -1 $-1 $73 $74 $10 $-1 $75 reversed single F F #
-47 loop $-1 -1 -1 $-1 $-1 $76 $31 F unknown #
-48 plane-surface $-1 -1 -1 $-1 243.27320762776841 -25.271904461556026 211.99458977258109 -1 -1.8503717077085946e-16 0 1.8503717077085946e-13 -1000 0 forward_v I I I I #
-49 coedge $-1 -1 -1 $-1 $77 $78 $79 $80 forward $32 $-1 #
-50 coedge $-1 -1 -1 $-1 $81 $34 $78 $82 reversed $20 $-1 #
-51 coedge $-1 -1 -1 $-1 $34 $81 $83 $84 forward $20 $-1 #
-52 coedge $-1 -1 -1 $-1 $85 $79 $34 $53 reversed $86 $-1 #
-53 edge $-1 -1 -1 $-1 $87 1 $88 0 $34 $89 forward @7 unknown F #
-54 integer_attrib-name_attrib-gen-attrib $-1 -1 $-1 $-1 $36 2 1 2 1 1 1 1 1 1 1 1 1 1 1 0 1 1 1 @13 Boss-Extrude1 0 #
-55 face $90 -1 -1 $-1 $-1 $91 $12 $-1 $92 reversed single F F #
-56 loop $-1 -1 -1 $-1 $-1 $93 $36 F unknown #
-57 plane-surface $-1 -1 -1 $-1 57.405691816061569 158.72809553844399 117.49458977258109 -1.0927391974657053e-16 1 0 1000 1.0927391974657053e-13 1.0927391974657053e-13 forward_v I I I I #
-58 coedge $-1 -1 -1 $-1 $94 $95 $59 $96 reversed $37 $-1 #
-59 coedge $-1 -1 -1 $-1 $97 $39 $58 $96 forward $24 $-1 #
-60 coedge $-1 -1 -1 $-1 $39 $97 $98 $99 reversed $24 $-1 #
-61 coedge $-1 -1 -1 $-1 $93 $93 $39 $62 forward $56 $-1 #
-62 edge $-1 -1 -1 $-1 $100 1.0927391974657053e-16 $101 3.1415926535897931 $61 $102 forward @7 unknown F #
-63 integer_attrib-name_attrib-gen-attrib $-1 -1 $-1 $-1 $41 2 1 2 1 1 1 1 1 1 1 1 1 1 1 0 1 1 1 @13 Boss-Extrude5 0 #
-64 face $103 -1 -1 $-1 $104 $105 $14 $-1 $106 reversed single F F #
-65 loop $-1 -1 -1 $-1 $-1 $107 $41 F unknown #
-66 cone-surface $-1 -1 -1 $-1 9.9315610950949633 224.7364631921385 118.78874859585889 0.97125239649577921 -0.23805205796465093 -6.6072718952939444e-18 0 6.9885006806926342e-16 -25.178727249156651 1 I I 0 1 25.178727249156651 forward I I I I #
-67 coedge $-1 -1 -1 $-1 $108 $70 $109 $110 reversed $42 $-1 #
-68 coedge $-1 -1 -1 $-1 $111 $44 $107 $112 forward $28 $-1 #
-69 coedge $-1 -1 -1 $-1 $44 $111 $113 $114 reversed $28 $-1 #
-70 coedge $-1 -1 -1 $-1 $67 $108 $44 $71 forward $42 $-1 #
-71 edge $-1 -1 -1 $-1 $115 -3.1415926535897931 $116 -1.8403794424928073 $70 $117 forward @7 unknown F #
-72 integer_attrib-name_attrib-gen-attrib $-1 -1 $-1 $-1 $46 2 1 2 1 1 1 1 1 1 1 1 1 1 1 0 1 1 1 @13 Boss-Extrude2 0 #
-73 face $118 -1 -1 $-1 $119 $120 $10 $-1 $121 reversed single F F #
-74 loop $-1 -1 -1 $-1 $-1 $122 $46 F unknown #
-75 plane-surface $-1 -1 -1 $-1 243.27320762776836 274.72809553844399 211.99458977258109 -2.5463830840026536e-16 -1 0 1000 -2.5463830840026534e-13 0 forward_v I I I I #
-76 coedge $-1 -1 -1 $-1 $123 $124 $125 $126 forward $47 $-1 #
-77 coedge $-1 -1 -1 $-1 $127 $49 $124 $128 reversed $32 $-1 #
-78 coedge $-1 -1 -1 $-1 $49 $127 $50 $82 forward $32 $-1 #
-79 coedge $-1 -1 -1 $-1 $52 $125 $49 $80 reversed $86 $-1 #
-80 edge $-1 -1 -1 $-1 $88 1 $129 0 $49 $130 forward @7 unknown F #
-81 coedge $-1 -1 -1 $-1 $51 $50 $131 $132 reversed $20 $-1 #
-82 edge $-1 -1 -1 $-1 $133 1 $88 0 $78 $134 forward @7 unknown F #
-83 coedge $-1 -1 -1 $-1 $135 $136 $51 $84 reversed $137 $-1 #
-84 edge $-1 -1 -1 $-1 $138 1 $87 0 $51 $139 forward @7 unknown F #
-85 coedge $-1 -1 -1 $-1 $140 $52 $136 $141 reversed $86 $-1 #
-86 loop $-1 -1 -1 $-1 $-1 $52 $142 F unknown #
-87 vertex $-1 -1 -1 $-1 $141 $143 #
-88 vertex $-1 -1 -1 $-1 $80 $144 #
-89 straight-curve $-1 -1 -1 $-1 0.27320762776847385 12.728095538443974 24.994589772581094 -6.4455094691966026e-18 -1 0 1000 I I #
-90 integer_attrib-name_attrib-gen-attrib $-1 -1 $-1 $-1 $55 2 1 2 1 1 1 1 1 1 1 1 1 1 1 0 1 1 1 @13 Boss-Extrude1 0 #
-91 loop $-1 -1 -1 $-1 $-1 $145 $55 F unknown #
-92 plane-surface $-1 -1 -1 $-1 57.405691816061569 145.72809553844399 117.49458977258109 -1.0927391974657053e-16 1 0 1000 1.0927391974657053e-13 1.0927391974657053e-13 forward_v I I I I #
-93 coedge $-1 -1 -1 $-1 $61 $61 $94 $146 forward $56 $-1 #
-94 coedge $-1 -1 -1 $-1 $98 $58 $93 $146 reversed $37 $-1 #
-95 coedge $-1 -1 -1 $-1 $58 $98 $145 $147 forward $37 $-1 #
-96 edge $-1 -1 -1 $-1 $100 0 $148 0.012999999999999999 $59 $149 forward @7 unknown F #
-97 coedge $-1 -1 -1 $-1 $60 $59 $150 $151 forward $24 $-1 #
-98 coedge $-1 -1 -1 $-1 $95 $94 $60 $99 forward $37 $-1 #
-99 edge $-1 -1 -1 $-1 $101 0 $152 0.012999999999999999 $98 $153 forward @7 unknown F #
-100 vertex $-1 -1 -1 $-1 $96 $154 #
-101 vertex $-1 -1 -1 $-1 $62 $155 #
-102 ellipse-curve $-1 -1 -1 $-1 57.405691816061569 158.72809553844399 117.49458977258109 -1.0927391974657053e-16 1 0 39.5 4.3163198299895357e-15 4.3163198299895357e-15 1 I I #
-103 integer_attrib-name_attrib-gen-attrib $-1 -1 $-1 $-1 $64 2 1 2 1 1 1 1 1 1 1 1 1 1 1 0 1 1 1 @13 Boss-Extrude5 0 #
-104 face $156 -1 -1 $-1 $157 $158 $14 $-1 $159 forward single F T -7.2309618247383578e-17 0.11914819880740726 1.8403794424928064 4.4428058646867798 #
-105 loop $-1 -1 -1 $-1 $-1 $160 $64 F unknown #
-106 plane-surface $-1 -1 -1 $-1 4.1541990002103013 201.16482584500901 115.30437927419135 0.23805205796465093 0.97125239649577921 2.6957669332799379e-17 -971.25239649577918 238.05205796465091 6.607271895293944e-15 forward_v I I I I #
-107 coedge $-1 -1 -1 $-1 $161 $162 $68 $112 reversed $65 $-1 #
-108 coedge $-1 -1 -1 $-1 $70 $67 $161 $163 forward $42 $-1 #
-109 coedge $-1 -1 -1 $-1 $164 $165 $67 $110 forward $166 $-1 #
-110 edge $-1 -1 -1 $-1 $167 1 $116 0 $109 $168 forward @7 unknown F #
-111 coedge $-1 -1 -1 $-1 $69 $68 $169 $170 forward $28 $-1 #
-112 edge $-1 -1 -1 $-1 $115 0 $171 0.0029999999999999975 $68 $172 forward @7 unknown F #
-113 coedge $-1 -1 -1 $-1 $160 $173 $69 $114 forward $105 $-1 #
-114 edge $-1 -1 -1 $-1 $116 0 $174 0.0029999999999999975 $113 $175 forward @7 unknown F #
-115 vertex $-1 -1 -1 $-1 $112 $176 #
-116 vertex $-1 -1 -1 $-1 $71 $177 #
-117 ellipse-curve $-1 -1 -1 $-1 9.9315610950949633 224.7364631921385 118.78874859585889 -0.97125239649577921 0.23805205796465093 6.6072718952939444e-18 0 -6.9885006806926342e-16 25.178727249156651 1 I I #
-118 integer_attrib-name_attrib-gen-attrib $-1 -1 $-1 $-1 $73 2 1 2 1 1 1 1 1 1 1 1 1 1 1 0 1 1 1 @13 Boss-Extrude2 0 #
-119 face $178 -1 -1 $-1 $179 $180 $10 $-1 $181 reversed single F F #
-120 loop $-1 -1 -1 $-1 $-1 $182 $73 F unknown #
-121 plane-surface $-1 -1 -1 $-1 25.273207627768414 274.72809553844405 211.99458977258109 0.97125239649577932 -0.23805205796465098 0 238.05205796465097 971.25239649577929 0 forward_v I I I I #
-122 coedge $-1 -1 -1 $-1 $183 $184 $185 $186 forward $74 $-1 #
-123 coedge $-1 -1 -1 $-1 $187 $76 $184 $188 reversed $47 $-1 #
-124 coedge $-1 -1 -1 $-1 $76 $187 $77 $128 forward $47 $-1 #
-125 coedge $-1 -1 -1 $-1 $79 $185 $76 $126 reversed $86 $-1 #
-126 edge $-1 -1 -1 $-1 $129 1 $189 0 $76 $190 forward @7 unknown F #
-127 coedge $-1 -1 -1 $-1 $78 $77 $191 $192 reversed $32 $-1 #
-128 edge $-1 -1 -1 $-1 $193 1 $129 0 $124 $194 forward @7 unknown F #
-129 vertex $-1 -1 -1 $-1 $80 $195 #
-130 straight-curve $-1 -1 -1 $-1 0.27320762776847363 -25.271904461556026 24.994589772581094 1 0 0 1000 I I #
-131 coedge $-1 -1 -1 $-1 $191 $196 $81 $132 forward $197 $-1 #
-132 edge $-1 -1 -1 $-1 $138 1 $133 0 $131 $198 forward @7 unknown F #
-133 vertex $-1 -1 -1 $-1 $192 $199 #
-134 straight-curve $-1 -1 -1 $-1 0.27320762776847363 -25.271904461556026 211.99458977258109 -0 -0 -1 1000 I I #
-135 coedge $-1 -1 -1 $-1 $200 $83 $196 $201 reversed $137 $-1 #
-136 coedge $-1 -1 -1 $-1 $83 $200 $85 $141 forward $137 $-1 #
-137 loop $-1 -1 -1 $-1 $-1 $136 $202 F unknown #
-138 vertex $-1 -1 -1 $-1 $201 $203 #
-139 straight-curve $-1 -1 -1 $-1 0.27320762776847385 12.728095538443974 211.99458977258109 -0 -0 -1 1000 I I #
-140 coedge $-1 -1 -1 $-1 $204 $85 $205 $206 reversed $86 $-1 #
-141 edge $-1 -1 -1 $-1 $207 1 $87 0 $136 $208 forward @7 unknown F #
-142 face $209 -1 -1 $-1 $-1 $86 $10 $-1 $210 reversed single F F #
-143 point $-1 -1 -1 $-1 0.27320762776847385 12.728095538443974 24.994589772581094 #
-144 point $-1 -1 -1 $-1 0.27320762776847363 -25.271904461556026 24.994589772581094 #
-145 coedge $-1 -1 -1 $-1 $150 $150 $95 $147 reversed $91 $-1 #
-146 edge $-1 -1 -1 $-1 $101 -3.1415926535897931 $100 1.0927391974657053e-16 $93 $211 forward @7 unknown F #
-147 edge $-1 -1 -1 $-1 $152 -3.1415926535897931 $148 1.0927391974657053e-16 $95 $212 forward @7 unknown F #
-148 vertex $-1 -1 -1 $-1 $96 $213 #
-149 straight-curve $-1 -1 -1 $-1 96.905691816061562 158.72809553844399 117.49458977258109 1.0927391974657053e-16 -1 0 1000 I I #
-150 coedge $-1 -1 -1 $-1 $145 $145 $97 $151 reversed $91 $-1 #
-151 edge $-1 -1 -1 $-1 $148 1.0927391974657053e-16 $152 3.1415926535897931 $97 $214 forward @7 unknown F #
-152 vertex $-1 -1 -1 $-1 $151 $215 #
-153 straight-curve $-1 -1 -1 $-1 17.905691816061569 158.72809553844399 117.49458977258109 1.0927391974657053e-16 -1 0 1000 I I #
-154 point $-1 -1 -1 $-1 96.905691816061562 158.72809553844399 117.49458977258109 #
-155 point $-1 -1 -1 $-1 17.905691816061569 158.72809553844399 117.49458977258109 #
-156 integer_attrib-name_attrib-gen-attrib $-1 -1 $-1 $-1 $104 2 1 2 1 1 1 1 1 1 1 1 1 1 1 0 1 1 1 @13 Boss-Extrude5 0 #
-157 face $216 -1 -1 $-1 $217 $218 $14 $-1 $219 forward single F F #
-158 loop $-1 -1 -1 $-1 $-1 $220 $104 F unknown #
-159 cone-surface $-1 -1 -1 $-1 9.9315610950949633 224.7364631921385 118.78874859585889 0.97125239649577921 -0.23805205796465093 -6.6072718952939444e-18 0 6.9885006806926342e-16 -25.178727249156651 1 I I 0 1 25.178727249156651 forward I I I I #
-160 coedge $-1 -1 -1 $-1 $221 $113 $222 $223 forward $105 $-1 #
-161 coedge $-1 -1 -1 $-1 $224 $107 $108 $163 reversed $65 $-1 #
-162 coedge $-1 -1 -1 $-1 $107 $224 $225 $226 forward $65 $-1 #
-163 edge $-1 -1 -1 $-1 $167 1.8403794424928073 $115 3.1415926535897931 $108 $227 forward @7 unknown F #
-164 coedge $-1 -1 -1 $-1 $228 $109 $173 $229 reversed $166 $-1 #
-165 coedge $-1 -1 -1 $-1 $109 $228 $230 $231 forward $166 $-1 #
-166 loop $-1 -1 -1 $-1 $-1 $109 $232 F unknown #
-167 vertex $-1 -1 -1 $-1 $110 $233 #
-168 straight-curve $-1 -1 -1 $-1 4.1541990002103013 201.16482584500901 112.08290741913666 -0.23805205796465095 -0.97125239649577932 -2.6957669332799382e-17 999.99999999999989 I I #
-169 coedge $-1 -1 -1 $-1 $225 $222 $111 $170 reversed $234 $-1 #
-170 edge $-1 -1 -1 $-1 $171 -3.1415926535897931 $174 -1.8403794424928073 $111 $235 forward @7 unknown F #
-171 vertex $-1 -1 -1 $-1 $112 $236 #
-172 straight-curve $-1 -1 -1 $-1 9.9315610950949633 224.7364631921385 93.61002134670224 0.97125239649577932 -0.23805205796465095 -6.6072718952939444e-18 999.99999999999989 I I #
-173 coedge $-1 -1 -1 $-1 $113 $237 $164 $229 forward $105 $-1 #
-174 vertex $-1 -1 -1 $-1 $170 $238 #
-175 straight-curve $-1 -1 -1 $-1 4.1541990002103013 201.16482584500901 112.08290741913666 0.97125239649577932 -0.23805205796465095 -6.6072718952939444e-18 999.99999999999989 I I #
-176 point $-1 -1 -1 $-1 9.9315610950949633 224.7364631921385 93.61002134670224 #
-177 point $-1 -1 -1 $-1 4.1541990002103013 201.16482584500901 112.08290741913666 #
-178 integer_attrib-name_attrib-gen-attrib $-1 -1 $-1 $-1 $119 2 1 2 1 1 1 1 1 1 1 1 1 1 1 0 1 1 1 @13 Boss-Extrude2 0 #
-179 face $239 -1 -1 $-1 $202 $240 $10 $-1 $241 reversed single F F #
-180 loop $-1 -1 -1 $-1 $-1 $242 $119 F unknown #
-181 plane-surface $-1 -1 -1 $-1 0.27320762776848689 172.72809553844397 211.99458977258109 0.13267490817172245 0.99115960810639625 0 -991.15960810639626 132.67490817172245 0 forward_v I I I I #
-182 coedge $-1 -1 -1 $-1 $243 $244 $245 $246 forward $120 $-1 #
-183 coedge $-1 -1 -1 $-1 $247 $122 $244 $248 reversed $74 $-1 #
-184 coedge $-1 -1 -1 $-1 $122 $247 $123 $188 forward $74 $-1 #
-185 coedge $-1 -1 -1 $-1 $125 $245 $122 $186 reversed $86 $-1 #
-186 edge $-1 -1 -1 $-1 $189 1 $249 0 $122 $250 forward @7 unknown F #
-187 coedge $-1 -1 -1 $-1 $124 $123 $251 $252 reversed $47 $-1 #
-188 edge $-1 -1 -1 $-1 $253 1 $189 0 $184 $254 forward @7 unknown F #
-189 vertex $-1 -1 -1 $-1 $126 $255 #
-190 straight-curve $-1 -1 -1 $-1 243.27320762776841 -25.271904461556026 24.994589772581094 -1.8503717077085943e-16 1 0 1000 I I #
-191 coedge $-1 -1 -1 $-1 $251 $131 $127 $192 forward $197 $-1 #
-192 edge $-1 -1 -1 $-1 $133 1 $193 0 $191 $256 forward @7 unknown F #
-193 vertex $-1 -1 -1 $-1 $192 $257 #
-194 straight-curve $-1 -1 -1 $-1 243.27320762776841 -25.271904461556026 211.99458977258109 -0 -0 -1 1000 I I #
-195 point $-1 -1 -1 $-1 243.27320762776841 -25.271904461556026 24.994589772581094 #
-196 coedge $-1 -1 -1 $-1 $131 $258 $135 $201 forward $197 $-1 #
-197 loop $-1 -1 -1 $-1 $-1 $131 $259 F unknown #
-198 straight-curve $-1 -1 -1 $-1 0.27320762776847385 12.728095538443974 211.99458977258109 -6.4455094691966026e-18 -1 0 1000 I I #
-199 point $-1 -1 -1 $-1 0.27320762776847363 -25.271904461556026 211.99458977258109 #
-200 coedge $-1 -1 -1 $-1 $136 $135 $260 $261 forward $137 $-1 #
-201 edge $-1 -1 -1 $-1 $262 1 $138 0 $196 $263 forward @7 unknown F #
-202 face $264 -1 -1 $-1 $259 $137 $10 $-1 $265 reversed single F F #
-203 point $-1 -1 -1 $-1 0.27320762776847385 12.728095538443974 211.99458977258109 #
-204 coedge $-1 -1 -1 $-1 $245 $140 $242 $266 reversed $86 $-1 #
-205 coedge $-1 -1 -1 $-1 $260 $267 $140 $206 forward $240 $-1 #
-206 edge $-1 -1 -1 $-1 $268 1 $207 0 $205 $269 forward @7 unknown F #
-207 vertex $-1 -1 -1 $-1 $206 $270 #
-208 straight-curve $-1 -1 -1 $-1 127.27320762776847 12.728095538443988 24.994589772581094 -1 -1.0927391974657053e-16 0 1000 I I #
-209 integer_attrib-name_attrib-gen-attrib $-1 -1 $-1 $-1 $142 2 1 2 1 1 1 1 1 1 1 1 1 1 1 0 1 1 1 @13 Boss-Extrude2 0 #
-210 plane-surface $-1 -1 -1 $-1 0.27320762776847363 -25.271904461556026 24.994589772581094 0 0 1 1000 0 0 forward_v I I I I #
-211 ellipse-curve $-1 -1 -1 $-1 57.405691816061569 158.72809553844399 117.49458977258109 -1.0927391974657053e-16 1 0 39.5 4.3163198299895357e-15 4.3163198299895357e-15 1 I I #
-212 ellipse-curve $-1 -1 -1 $-1 57.405691816061569 145.72809553844399 117.49458977258109 -1.0927391974657053e-16 1 0 39.5 4.3163198299895357e-15 4.3163198299895357e-15 1 I I #
-213 point $-1 -1 -1 $-1 96.905691816061562 145.72809553844399 117.49458977258109 #
-214 ellipse-curve $-1 -1 -1 $-1 57.405691816061569 145.72809553844399 117.49458977258109 -1.0927391974657053e-16 1 0 39.5 4.3163198299895357e-15 4.3163198299895357e-15 1 I I #
-215 point $-1 -1 -1 $-1 17.905691816061569 145.72809553844399 117.49458977258109 #
-216 integer_attrib-name_attrib-gen-attrib $-1 -1 $-1 $-1 $157 2 1 2 1 1 1 1 1 1 1 1 1 1 1 0 1 1 1 @13 Boss-Extrude5 0 #
-217 face $271 -1 -1 $-1 $272 $273 $14 $-1 $274 forward single F F #
-218 loop $-1 -1 -1 $-1 $-1 $275 $157 F unknown #
-219 plane-surface $-1 -1 -1 $-1 15.708923189979618 248.30810053926797 115.30437927419135 0.23805205796465093 0.97125239649577921 2.6957669332799379e-17 -971.25239649577918 238.05205796465091 6.607271895293944e-15 forward_v I I I I #
-220 coedge $-1 -1 -1 $-1 $276 $277 $278 $279 forward $158 $-1 #
-221 coedge $-1 -1 -1 $-1 $280 $160 $277 $281 reversed $105 $-1 #
-222 coedge $-1 -1 -1 $-1 $169 $278 $160 $223 reversed $234 $-1 #
-223 edge $-1 -1 -1 $-1 $174 1 $282 0 $160 $283 forward @7 unknown F #
-224 coedge $-1 -1 -1 $-1 $162 $161 $284 $285 forward $65 $-1 #
-225 coedge $-1 -1 -1 $-1 $286 $169 $162 $226 reversed $234 $-1 #
-226 edge $-1 -1 -1 $-1 $287 1.8403794424928068 $171 3.1415926535897931 $162 $288 forward @7 unknown F #
-227 ellipse-curve $-1 -1 -1 $-1 9.9315610950949633 224.7364631921385 118.78874859585889 -0.97125239649577921 0.23805205796465093 6.6072718952939444e-18 0 -6.9885006806926342e-16 25.178727249156651 1 I I #
-228 coedge $-1 -1 -1 $-1 $165 $164 $289 $290 reversed $166 $-1 #
-229 edge $-1 -1 -1 $-1 $291 1 $116 0 $173 $292 forward @7 unknown F #
-230 coedge $-1 -1 -1 $-1 $293 $284 $165 $231 reversed $218 $-1 #
-231 edge $-1 -1 -1 $-1 $294 1 $167 0 $165 $295 forward @7 unknown F #
-232 face $296 -1 -1 $-1 $297 $166 $14 $-1 $298 reversed single F F #
-233 point $-1 -1 -1 $-1 15.708923189979618 248.30810053926797 112.08290741913667 #
-234 loop $-1 -1 -1 $-1 $-1 $225 $272 F unknown #
-235 ellipse-curve $-1 -1 -1 $-1 12.845318284582302 224.02230701824456 118.78874859585889 -0.97125239649577921 0.23805205796465093 6.6072718952939444e-18 0 -6.9885006806926342e-16 25.178727249156651 1 I I #
-236 point $-1 -1 -1 $-1 12.845318284582302 224.02230701824456 93.61002134670224 #
-237 coedge $-1 -1 -1 $-1 $173 $280 $299 $300 reversed $105 $-1 #
-238 point $-1 -1 -1 $-1 7.0679561896976395 200.45066967111507 112.08290741913666 #
-239 integer_attrib-name_attrib-gen-attrib $-1 -1 $-1 $-1 $179 2 1 2 1 1 1 1 1 1 1 1 1 1 1 0 1 1 1 @13 Boss-Extrude2 0 #
-240 loop $-1 -1 -1 $-1 $-1 $205 $179 F unknown #
-241 plane-surface $-1 -1 -1 $-1 127.27320762776844 155.72809553844397 211.99458977258109 1 1.9409493437502738e-16 0 -1.9409493437502737e-13 1000 0 forward_v I I I I #
-242 coedge $-1 -1 -1 $-1 $301 $302 $204 $266 forward $180 $-1 #
-243 coedge $-1 -1 -1 $-1 $303 $182 $302 $304 reversed $120 $-1 #
-244 coedge $-1 -1 -1 $-1 $182 $303 $183 $248 forward $120 $-1 #
-245 coedge $-1 -1 -1 $-1 $185 $204 $182 $246 reversed $86 $-1 #
-246 edge $-1 -1 -1 $-1 $249 1 $305 0 $182 $306 forward @7 unknown F #
-247 coedge $-1 -1 -1 $-1 $184 $183 $307 $308 reversed $74 $-1 #
-248 edge $-1 -1 -1 $-1 $309 1 $249 0 $244 $310 forward @7 unknown F #
-249 vertex $-1 -1 -1 $-1 $186 $311 #
-250 straight-curve $-1 -1 -1 $-1 243.27320762776836 274.72809553844399 24.994589772581094 -1 2.5463830840026536e-16 0 1000 I I #
-251 coedge $-1 -1 -1 $-1 $307 $191 $187 $252 forward $197 $-1 #
-252 edge $-1 -1 -1 $-1 $193 1 $253 0 $251 $312 forward @7 unknown F #
-253 vertex $-1 -1 -1 $-1 $252 $313 #
-254 straight-curve $-1 -1 -1 $-1 243.27320762776836 274.72809553844399 211.99458977258109 -0 -0 -1 1000 I I #
-255 point $-1 -1 -1 $-1 243.27320762776836 274.72809553844399 24.994589772581094 #
-256 straight-curve $-1 -1 -1 $-1 0.27320762776847363 -25.271904461556026 211.99458977258109 1 0 0 1000 I I #
-257 point $-1 -1 -1 $-1 243.27320762776841 -25.271904461556026 211.99458977258109 #
-258 coedge $-1 -1 -1 $-1 $196 $314 $315 $316 forward $197 $-1 #
-259 face $317 -1 -1 $-1 $142 $197 $10 $-1 $318 forward single F F #
-260 coedge $-1 -1 -1 $-1 $315 $205 $200 $261 reversed $240 $-1 #
-261 edge $-1 -1 -1 $-1 $262 1 $207 0 $200 $319 forward @7 unknown F #
-262 vertex $-1 -1 -1 $-1 $316 $320 #
-263 straight-curve $-1 -1 -1 $-1 127.27320762776847 12.728095538443988 211.99458977258109 -1 -1.0927391974657053e-16 0 1000 I I #
-264 integer_attrib-name_attrib-gen-attrib $-1 -1 $-1 $-1 $202 2 1 2 1 1 1 1 1 1 1 1 1 1 1 0 1 1 1 @13 Boss-Extrude2 0 #
-265 plane-surface $-1 -1 -1 $-1 127.27320762776847 12.728095538443988 211.99458977258109 1.0927391974657053e-16 -1 0 1000 1.0927391974657053e-13 0 forward_v I I I I #
-266 edge $-1 -1 -1 $-1 $305 1 $268 0 $242 $321 forward @7 unknown F #
-267 coedge $-1 -1 -1 $-1 $205 $315 $301 $322 forward $240 $-1 #
-268 vertex $-1 -1 -1 $-1 $266 $323 #
-269 straight-curve $-1 -1 -1 $-1 127.27320762776844 155.72809553844397 24.994589772581094 1.9409493437502738e-16 -1 0 1000 I I #
-270 point $-1 -1 -1 $-1 127.27320762776847 12.728095538443988 24.994589772581094 #
-271 integer_attrib-name_attrib-gen-attrib $-1 -1 $-1 $-1 $217 2 1 2 1 1 1 1 1 1 1 1 1 1 1 0 1 1 1 @13 Boss-Extrude5 0 #
-272 face $324 -1 -1 $-1 $232 $234 $14 $-1 $325 reversed single F F #
-273 loop $-1 -1 -1 $-1 $-1 $326 $217 F unknown #
-274 plane-surface $-1 -1 -1 $-1 -17.497609967378018 112.82544525724836 115.30437927419135 -0.97125239649577921 0.23805205796465093 6.6072718952939444e-18 0 -2.7755575615628907e-14 1000 forward_v I I I I #
-275 coedge $-1 -1 -1 $-1 $284 $327 $286 $328 reversed $218 $-1 #
-276 coedge $-1 -1 -1 $-1 $329 $220 $327 $330 reversed $158 $-1 #
-277 coedge $-1 -1 -1 $-1 $220 $329 $221 $281 forward $158 $-1 #
-278 coedge $-1 -1 -1 $-1 $222 $286 $220 $279 reversed $234 $-1 #
-279 edge $-1 -1 -1 $-1 $282 -1.3012132110969867 $331 1.3012132110969867 $220 $332 forward @7 unknown F #
-280 coedge $-1 -1 -1 $-1 $237 $221 $333 $334 reversed $105 $-1 #
-281 edge $-1 -1 -1 $-1 $335 0 $282 0.0029999999999999975 $277 $336 forward @7 unknown F #
-282 vertex $-1 -1 -1 $-1 $223 $337 #
-283 straight-curve $-1 -1 -1 $-1 7.0679561896976395 200.45066967111507 115.30437927419135 0 -2.7755575615628907e-17 1 1000 I I #
-284 coedge $-1 -1 -1 $-1 $230 $275 $224 $285 reversed $218 $-1 #
-285 edge $-1 -1 -1 $-1 $167 0 $287 0.002999999999999994 $224 $338 forward @7 unknown F #
-286 coedge $-1 -1 -1 $-1 $278 $225 $275 $328 forward $234 $-1 #
-287 vertex $-1 -1 -1 $-1 $285 $339 #
-288 ellipse-curve $-1 -1 -1 $-1 12.845318284582302 224.02230701824456 118.78874859585889 -0.97125239649577921 0.23805205796465093 6.6072718952939444e-18 0 -6.9885006806926342e-16 25.178727249156651 1 I I #
-289 coedge $-1 -1 -1 $-1 $299 $340 $228 $290 forward $341 $-1 #
-290 edge $-1 -1 -1 $-1 $294 1 $291 0 $289 $342 forward @7 unknown F #
-291 vertex $-1 -1 -1 $-1 $300 $343 #
-292 straight-curve $-1 -1 -1 $-1 -5.5583249647474915 203.54534642465552 112.08290741913666 0.97125239649577932 -0.23805205796465095 -6.6072718952939444e-18 999.99999999999989 I I #
-293 coedge $-1 -1 -1 $-1 $344 $230 $340 $345 reversed $218 $-1 #
-294 vertex $-1 -1 -1 $-1 $345 $346 #
-295 straight-curve $-1 -1 -1 $-1 5.9963992250218254 250.68862111891451 112.08290741913667 0.97125239649577932 -0.23805205796465095 -6.6072718952939444e-18 999.99999999999989 I I #
-296 integer_attrib-name_attrib-gen-attrib $-1 -1 $-1 $-1 $232 2 1 2 1 1 1 1 1 1 1 1 1 1 1 0 1 1 1 @13 Boss-Extrude5 0 #
-297 face $347 -1 -1 $-1 $348 $349 $14 $-1 $350 reversed single F F #
-298 plane-surface $-1 -1 -1 $-1 -5.5583249647474915 203.54534642465552 112.08290741913666 0 -2.7755575615628907e-17 1 971.25239649577918 -238.05205796465091 -6.607271895293944e-15 forward_v I I I I #
-299 coedge $-1 -1 -1 $-1 $351 $289 $237 $300 forward $341 $-1 #
-300 edge $-1 -1 -1 $-1 $291 1 $352 0 $299 $353 forward @7 unknown F #
-301 coedge $-1 -1 -1 $-1 $354 $242 $267 $322 reversed $180 $-1 #
-302 coedge $-1 -1 -1 $-1 $242 $354 $243 $304 forward $180 $-1 #
-303 coedge $-1 -1 -1 $-1 $244 $243 $355 $356 reversed $120 $-1 #
-304 edge $-1 -1 -1 $-1 $357 1 $305 0 $302 $358 forward @7 unknown F #
-305 vertex $-1 -1 -1 $-1 $246 $359 #
-306 straight-curve $-1 -1 -1 $-1 25.273207627768414 274.72809553844405 24.994589772581094 -0.23805205796465098 -0.97125239649577932 0 1000.0000000000003 I I #
-307 coedge $-1 -1 -1 $-1 $355 $251 $247 $308 forward $197 $-1 #
-308 edge $-1 -1 -1 $-1 $253 1 $309 0 $307 $360 forward @7 unknown F #
-309 vertex $-1 -1 -1 $-1 $308 $361 #
-310 straight-curve $-1 -1 -1 $-1 25.273207627768414 274.72809553844405 211.99458977258109 -0 -0 -1 1000 I I #
-311 point $-1 -1 -1 $-1 25.273207627768414 274.72809553844405 24.994589772581094 #
-312 straight-curve $-1 -1 -1 $-1 243.27320762776841 -25.271904461556026 211.99458977258109 -1.8503717077085943e-16 1 0 1000 I I #
-313 point $-1 -1 -1 $-1 243.27320762776836 274.72809553844399 211.99458977258109 #
-314 coedge $-1 -1 -1 $-1 $258 $355 $354 $362 forward $197 $-1 #
-315 coedge $-1 -1 -1 $-1 $267 $260 $258 $316 reversed $240 $-1 #
-316 edge $-1 -1 -1 $-1 $363 1 $262 0 $258 $364 forward @7 unknown F #
-317 integer_attrib-name_attrib-gen-attrib $-1 -1 $-1 $-1 $259 2 1 2 1 1 1 1 1 1 1 1 1 1 1 0 1 1 1 @13 Boss-Extrude2 0 #
-318 plane-surface $-1 -1 -1 $-1 0.27320762776847363 -25.271904461556026 211.99458977258109 0 0 1 1000 0 0 forward_v I I I I #
-319 straight-curve $-1 -1 -1 $-1 127.27320762776847 12.728095538443988 211.99458977258109 -0 -0 -1 1000 I I #
-320 point $-1 -1 -1 $-1 127.27320762776847 12.728095538443988 211.99458977258109 #
-321 straight-curve $-1 -1 -1 $-1 0.27320762776848689 172.72809553844397 24.994589772581094 0.99115960810639625 -0.13267490817172245 0 1000.0000000000001 I I #
-322 edge $-1 -1 -1 $-1 $363 1 $268 0 $267 $365 forward @7 unknown F #
-323 point $-1 -1 -1 $-1 127.27320762776844 155.72809553844397 24.994589772581094 #
-324 integer_attrib-name_attrib-gen-attrib $-1 -1 $-1 $-1 $272 2 1 2 1 1 1 1 1 1 1 1 1 1 1 0 1 1 1 @13 Boss-Extrude5 0 #
-325 plane-surface $-1 -1 -1 $-1 -14.58385277789068 112.11128908335441 115.30437927419135 -0.97125239649577921 0.23805205796465093 6.6072718952939444e-18 0 -2.7755575615628907e-14 1000 forward_v I I I I #
-326 coedge $-1 -1 -1 $-1 $366 $366 $367 $368 reversed $273 $-1 #
-327 coedge $-1 -1 -1 $-1 $275 $344 $276 $330 forward $218 $-1 #
-328 edge $-1 -1 -1 $-1 $287 1 $331 0 $286 $369 forward @7 unknown F #
-329 coedge $-1 -1 -1 $-1 $277 $276 $366 $370 reversed $158 $-1 #
-330 edge $-1 -1 -1 $-1 $371 0 $331 0.002999999999999994 $327 $372 forward @7 unknown F #
-331 vertex $-1 -1 -1 $-1 $330 $373 #
-332 ellipse-curve $-1 -1 -1 $-1 12.845318284582302 224.02230701824456 118.78874859585889 -0.97125239649577921 0.23805205796465093 6.6072718952939444e-18 0 -6.9885006806926342e-16 25.178727249156651 1 I I #
-333 coedge $-1 -1 -1 $-1 $367 $374 $280 $334 forward $349 $-1 #
-334 edge $-1 -1 -1 $-1 $352 1 $335 0 $333 $375 forward @7 unknown F #
-335 vertex $-1 -1 -1 $-1 $368 $376 #
-336 straight-curve $-1 -1 -1 $-1 4.1541990002103013 201.16482584500901 125.49458977258109 0.97125239649577932 -0.23805205796465095 -6.6072718952939444e-18 999.99999999999989 I I #
-337 point $-1 -1 -1 $-1 7.0679561896976395 200.45066967111507 125.49458977258109 #
-338 straight-curve $-1 -1 -1 $-1 15.708923189979618 248.30810053926797 112.08290741913667 0.97125239649577932 -0.23805205796465095 -6.6072718952939444e-18 999.99999999999989 I I #
-339 point $-1 -1 -1 $-1 18.62268037946696 247.59394436537406 112.08290741913667 #
-340 coedge $-1 -1 -1 $-1 $289 $351 $293 $345 forward $341 $-1 #
-341 loop $-1 -1 -1 $-1 $-1 $289 $348 F unknown #
-342 straight-curve $-1 -1 -1 $-1 -5.5583249647474915 203.54534642465552 112.08290741913666 -0.23805205796465095 -0.97125239649577932 -2.6957669332799382e-17 999.99999999999989 I I #
-343 point $-1 -1 -1 $-1 -5.5583249647474915 203.54534642465552 112.08290741913666 #
-344 coedge $-1 -1 -1 $-1 $327 $293 $377 $378 forward $218 $-1 #
-345 edge $-1 -1 -1 $-1 $379 1 $294 0 $340 $380 forward @7 unknown F #
-346 point $-1 -1 -1 $-1 5.9963992250218254 250.68862111891451 112.08290741913667 #
-347 integer_attrib-name_attrib-gen-attrib $-1 -1 $-1 $-1 $297 2 1 2 1 1 1 1 1 1 1 1 1 1 1 0 1 1 1 @13 Boss-Extrude5 0 #
-348 face $381 -1 -1 $-1 $-1 $341 $14 $-1 $382 reversed single F F #
-349 loop $-1 -1 -1 $-1 $-1 $367 $297 F unknown #
-350 plane-surface $-1 -1 -1 $-1 5.9963992250218254 250.68862111891451 125.49458977258109 0 2.7755575615628907e-17 -1 -971.25239649577918 238.05205796465091 6.607271895293944e-15 forward_v I I I I #
-351 coedge $-1 -1 -1 $-1 $340 $299 $374 $383 forward $341 $-1 #
-352 vertex $-1 -1 -1 $-1 $300 $384 #
-353 straight-curve $-1 -1 -1 $-1 -5.5583249647474915 203.54534642465552 125.49458977258109 0 -2.7755575615628907e-17 1 1000 I I #
-354 coedge $-1 -1 -1 $-1 $302 $301 $314 $362 reversed $180 $-1 #
-355 coedge $-1 -1 -1 $-1 $314 $307 $303 $356 forward $197 $-1 #
-356 edge $-1 -1 -1 $-1 $309 1 $357 0 $355 $385 forward @7 unknown F #
-357 vertex $-1 -1 -1 $-1 $356 $386 #
-358 straight-curve $-1 -1 -1 $-1 0.27320762776848689 172.72809553844397 211.99458977258109 -0 -0 -1 1000 I I #
-359 point $-1 -1 -1 $-1 0.27320762776848689 172.72809553844397 24.994589772581094 #
-360 straight-curve $-1 -1 -1 $-1 243.27320762776836 274.72809553844399 211.99458977258109 -1 2.5463830840026536e-16 0 1000 I I #
-361 point $-1 -1 -1 $-1 25.273207627768414 274.72809553844405 211.99458977258109 #
-362 edge $-1 -1 -1 $-1 $357 1 $363 0 $314 $387 forward @7 unknown F #
-363 vertex $-1 -1 -1 $-1 $362 $388 #
-364 straight-curve $-1 -1 -1 $-1 127.27320762776844 155.72809553844397 211.99458977258109 1.9409493437502738e-16 -1 0 1000 I I #
-365 straight-curve $-1 -1 -1 $-1 127.27320762776844 155.72809553844397 211.99458977258109 -0 -0 -1 1000 I I #
-366 coedge $-1 -1 -1 $-1 $326 $326 $329 $370 forward $273 $-1 #
-367 coedge $-1 -1 -1 $-1 $377 $333 $326 $368 forward $349 $-1 #
-368 edge $-1 -1 -1 $-1 $335 1 $371 0 $367 $389 forward @7 unknown F #
-369 straight-curve $-1 -1 -1 $-1 18.62268037946696 247.59394436537406 115.30437927419135 0 -2.7755575615628907e-17 1 1000 I I #
-370 edge $-1 -1 -1 $-1 $335 -1.3012132110969867 $371 1.3012132110969863 $366 $390 forward @7 unknown F #
-371 vertex $-1 -1 -1 $-1 $330 $391 #
-372 straight-curve $-1 -1 -1 $-1 15.708923189979618 248.30810053926797 125.49458977258109 0.97125239649577932 -0.23805205796465095 -6.6072718952939444e-18 999.99999999999989 I I #
-373 point $-1 -1 -1 $-1 18.62268037946696 247.59394436537406 125.49458977258109 #
-374 coedge $-1 -1 -1 $-1 $333 $377 $351 $383 reversed $349 $-1 #
-375 straight-curve $-1 -1 -1 $-1 -5.5583249647474915 203.54534642465552 125.49458977258109 0.97125239649577932 -0.23805205796465095 -6.6072718952939444e-18 999.99999999999989 I I #
-376 point $-1 -1 -1 $-1 4.1541990002103013 201.16482584500901 125.49458977258109 #
-377 coedge $-1 -1 -1 $-1 $374 $367 $344 $378 reversed $349 $-1 #
-378 edge $-1 -1 -1 $-1 $379 1 $371 0 $344 $392 forward @7 unknown F #
-379 vertex $-1 -1 -1 $-1 $383 $393 #
-380 straight-curve $-1 -1 -1 $-1 5.9963992250218254 250.68862111891451 112.08290741913667 0 2.7755575615628907e-17 -1 1000 I I #
-381 integer_attrib-name_attrib-gen-attrib $-1 -1 $-1 $-1 $348 2 1 2 1 1 1 1 1 1 1 1 1 1 1 0 1 1 1 @13 Boss-Extrude5 0 #
-382 plane-surface $-1 -1 -1 $-1 -27.210133932335811 115.20596583689488 115.30437927419135 0.97125239649577921 -0.23805205796465093 -6.6072718952939444e-18 0 2.7755575615628907e-14 -1000 forward_v I I I I #
-383 edge $-1 -1 -1 $-1 $352 1 $379 0 $351 $394 forward @7 unknown F #
-384 point $-1 -1 -1 $-1 -5.5583249647474915 203.54534642465552 125.49458977258109 #
-385 straight-curve $-1 -1 -1 $-1 25.273207627768414 274.72809553844405 211.99458977258109 -0.23805205796465098 -0.97125239649577932 0 1000.0000000000003 I I #
-386 point $-1 -1 -1 $-1 0.27320762776848689 172.72809553844397 211.99458977258109 #
-387 straight-curve $-1 -1 -1 $-1 0.27320762776848689 172.72809553844397 211.99458977258109 0.99115960810639625 -0.13267490817172245 0 1000.0000000000001 I I #
-388 point $-1 -1 -1 $-1 127.27320762776844 155.72809553844397 211.99458977258109 #
-389 straight-curve $-1 -1 -1 $-1 15.708923189979618 248.30810053926797 125.49458977258109 0.23805205796465095 0.97125239649577932 2.6957669332799382e-17 999.99999999999989 I I #
-390 ellipse-curve $-1 -1 -1 $-1 9.9315610950949633 224.7364631921385 118.78874859585889 -0.97125239649577921 0.23805205796465093 6.6072718952939444e-18 0 -6.9885006806926342e-16 25.178727249156651 1 I I #
-391 point $-1 -1 -1 $-1 15.708923189979618 248.30810053926797 125.49458977258109 #
-392 straight-curve $-1 -1 -1 $-1 5.9963992250218254 250.68862111891451 125.49458977258109 0.97125239649577932 -0.23805205796465095 -6.6072718952939444e-18 999.99999999999989 I I #
-393 point $-1 -1 -1 $-1 5.9963992250218254 250.68862111891451 125.49458977258109 #
-394 straight-curve $-1 -1 -1 $-1 5.9963992250218254 250.68862111891451 125.49458977258109 0.23805205796465095 0.97125239649577932 2.6957669332799382e-17 999.99999999999989 I I #
End-of-ACIS-data 